<mxfile host="app.diagrams.net" modified="2021-12-08T08:09:53.561Z" agent="5.0 (Windows NT 10.0; Win64; x64) AppleWebKit/537.36 (KHTML, like Gecko) Chrome/96.0.4664.45 Safari/537.36" etag="jTop-D5NUkBlcPh3uh4k" version="15.9.1" type="github">
  <diagram id="d0Gb9ExgJwCwHQkFDARk" name="Page-1">
    <mxGraphModel dx="1422" dy="762" grid="1" gridSize="10" guides="1" tooltips="1" connect="1" arrows="1" fold="1" page="1" pageScale="1" pageWidth="827" pageHeight="1169" math="0" shadow="0">
      <root>
        <mxCell id="0" />
        <mxCell id="1" parent="0" />
        <mxCell id="hKAbpb486GyOKFeo6Ovj-1" value="主界面" style="rounded=1;whiteSpace=wrap;html=1;fillColor=#fff2cc;strokeColor=#d6b656;" vertex="1" parent="1">
          <mxGeometry x="354" y="40" width="120" height="40" as="geometry" />
        </mxCell>
        <mxCell id="hKAbpb486GyOKFeo6Ovj-2" value="局内" style="rounded=1;whiteSpace=wrap;html=1;fillColor=#fff2cc;strokeColor=#d6b656;" vertex="1" parent="1">
          <mxGeometry x="354" y="180" width="120" height="40" as="geometry" />
        </mxCell>
        <mxCell id="hKAbpb486GyOKFeo6Ovj-3" value="点击放回道具引导关" style="rounded=1;whiteSpace=wrap;html=1;" vertex="1" parent="1">
          <mxGeometry x="354" y="110" width="120" height="40" as="geometry" />
        </mxCell>
        <mxCell id="hKAbpb486GyOKFeo6Ovj-4" value="图块下落动画" style="rounded=1;whiteSpace=wrap;html=1;" vertex="1" parent="1">
          <mxGeometry x="354" y="250" width="120" height="40" as="geometry" />
        </mxCell>
        <mxCell id="hKAbpb486GyOKFeo6Ovj-5" value="" style="endArrow=classic;html=1;entryX=0.5;entryY=0;entryDx=0;entryDy=0;exitX=0.5;exitY=1;exitDx=0;exitDy=0;" edge="1" parent="1" source="hKAbpb486GyOKFeo6Ovj-3" target="hKAbpb486GyOKFeo6Ovj-2">
          <mxGeometry width="50" height="50" relative="1" as="geometry">
            <mxPoint x="410" y="170" as="sourcePoint" />
            <mxPoint x="424" y="120" as="targetPoint" />
          </mxGeometry>
        </mxCell>
        <mxCell id="hKAbpb486GyOKFeo6Ovj-6" value="" style="endArrow=classic;html=1;exitX=0.5;exitY=1;exitDx=0;exitDy=0;entryX=0.5;entryY=0;entryDx=0;entryDy=0;" edge="1" parent="1" source="hKAbpb486GyOKFeo6Ovj-2" target="hKAbpb486GyOKFeo6Ovj-4">
          <mxGeometry width="50" height="50" relative="1" as="geometry">
            <mxPoint x="434" y="100" as="sourcePoint" />
            <mxPoint x="434" y="130" as="targetPoint" />
          </mxGeometry>
        </mxCell>
        <mxCell id="hKAbpb486GyOKFeo6Ovj-7" value="" style="endArrow=classic;html=1;exitX=0.5;exitY=1;exitDx=0;exitDy=0;" edge="1" parent="1" source="hKAbpb486GyOKFeo6Ovj-1">
          <mxGeometry width="50" height="50" relative="1" as="geometry">
            <mxPoint x="424" y="160" as="sourcePoint" />
            <mxPoint x="414" y="110" as="targetPoint" />
          </mxGeometry>
        </mxCell>
        <mxCell id="hKAbpb486GyOKFeo6Ovj-8" value="道具引导开始" style="rounded=1;whiteSpace=wrap;html=1;fillColor=#f8cecc;strokeColor=#b85450;" vertex="1" parent="1">
          <mxGeometry x="354" y="460" width="120" height="40" as="geometry" />
        </mxCell>
        <mxCell id="hKAbpb486GyOKFeo6Ovj-9" value="引导界面2" style="rounded=1;whiteSpace=wrap;html=1;" vertex="1" parent="1">
          <mxGeometry x="354" y="600" width="120" height="40" as="geometry" />
        </mxCell>
        <mxCell id="hKAbpb486GyOKFeo6Ovj-10" value="进入关卡" style="rounded=1;whiteSpace=wrap;html=1;" vertex="1" parent="1">
          <mxGeometry x="354" y="320" width="120" height="40" as="geometry" />
        </mxCell>
        <mxCell id="hKAbpb486GyOKFeo6Ovj-11" value="玩家中途退出" style="rounded=1;whiteSpace=wrap;html=1;" vertex="1" parent="1">
          <mxGeometry x="540" y="320" width="120" height="40" as="geometry" />
        </mxCell>
        <mxCell id="hKAbpb486GyOKFeo6Ovj-12" value="玩家继续关卡" style="rounded=1;whiteSpace=wrap;html=1;" vertex="1" parent="1">
          <mxGeometry x="354" y="670" width="120" height="40" as="geometry" />
        </mxCell>
        <mxCell id="hKAbpb486GyOKFeo6Ovj-13" value="玩法引导结束" style="rounded=1;whiteSpace=wrap;html=1;fillColor=#f8cecc;strokeColor=#b85450;" vertex="1" parent="1">
          <mxGeometry x="354" y="740" width="120" height="40" as="geometry" />
        </mxCell>
        <mxCell id="hKAbpb486GyOKFeo6Ovj-14" value="" style="endArrow=classic;html=1;exitX=0.5;exitY=1;exitDx=0;exitDy=0;entryX=0.5;entryY=0;entryDx=0;entryDy=0;" edge="1" parent="1" source="hKAbpb486GyOKFeo6Ovj-4" target="hKAbpb486GyOKFeo6Ovj-10">
          <mxGeometry width="50" height="50" relative="1" as="geometry">
            <mxPoint x="424" y="230" as="sourcePoint" />
            <mxPoint x="424" y="260" as="targetPoint" />
          </mxGeometry>
        </mxCell>
        <mxCell id="hKAbpb486GyOKFeo6Ovj-15" value="" style="endArrow=classic;html=1;exitX=0.5;exitY=1;exitDx=0;exitDy=0;entryX=0.5;entryY=0;entryDx=0;entryDy=0;" edge="1" parent="1" source="hKAbpb486GyOKFeo6Ovj-20" target="hKAbpb486GyOKFeo6Ovj-9">
          <mxGeometry width="50" height="50" relative="1" as="geometry">
            <mxPoint x="434" y="380" as="sourcePoint" />
            <mxPoint x="434" y="410" as="targetPoint" />
          </mxGeometry>
        </mxCell>
        <mxCell id="hKAbpb486GyOKFeo6Ovj-16" value="" style="endArrow=classic;html=1;exitX=0.5;exitY=1;exitDx=0;exitDy=0;entryX=0.5;entryY=0;entryDx=0;entryDy=0;" edge="1" parent="1" source="hKAbpb486GyOKFeo6Ovj-9" target="hKAbpb486GyOKFeo6Ovj-12">
          <mxGeometry width="50" height="50" relative="1" as="geometry">
            <mxPoint x="444" y="320" as="sourcePoint" />
            <mxPoint x="180" y="550" as="targetPoint" />
          </mxGeometry>
        </mxCell>
        <mxCell id="hKAbpb486GyOKFeo6Ovj-17" value="" style="endArrow=classic;html=1;exitX=0.5;exitY=1;exitDx=0;exitDy=0;entryX=0.5;entryY=0;entryDx=0;entryDy=0;startArrow=none;" edge="1" parent="1" source="hKAbpb486GyOKFeo6Ovj-39" target="hKAbpb486GyOKFeo6Ovj-8">
          <mxGeometry width="50" height="50" relative="1" as="geometry">
            <mxPoint x="454" y="330" as="sourcePoint" />
            <mxPoint x="454" y="360" as="targetPoint" />
          </mxGeometry>
        </mxCell>
        <mxCell id="hKAbpb486GyOKFeo6Ovj-18" value="" style="endArrow=classic;html=1;exitX=0.5;exitY=1;exitDx=0;exitDy=0;entryX=0.5;entryY=0;entryDx=0;entryDy=0;" edge="1" parent="1" source="hKAbpb486GyOKFeo6Ovj-12" target="hKAbpb486GyOKFeo6Ovj-13">
          <mxGeometry width="50" height="50" relative="1" as="geometry">
            <mxPoint x="464" y="410" as="sourcePoint" />
            <mxPoint x="464" y="440" as="targetPoint" />
          </mxGeometry>
        </mxCell>
        <mxCell id="hKAbpb486GyOKFeo6Ovj-19" value="" style="endArrow=classic;html=1;exitX=0.5;exitY=1;exitDx=0;exitDy=0;entryX=0.5;entryY=0;entryDx=0;entryDy=0;" edge="1" parent="1" source="hKAbpb486GyOKFeo6Ovj-8" target="hKAbpb486GyOKFeo6Ovj-20">
          <mxGeometry width="50" height="50" relative="1" as="geometry">
            <mxPoint x="474" y="420" as="sourcePoint" />
            <mxPoint x="474" y="450" as="targetPoint" />
          </mxGeometry>
        </mxCell>
        <mxCell id="hKAbpb486GyOKFeo6Ovj-20" value="引导界面1" style="rounded=1;whiteSpace=wrap;html=1;" vertex="1" parent="1">
          <mxGeometry x="354" y="530" width="120" height="40" as="geometry" />
        </mxCell>
        <mxCell id="hKAbpb486GyOKFeo6Ovj-21" value="" style="endArrow=classic;html=1;exitX=1;exitY=0.5;exitDx=0;exitDy=0;entryX=0;entryY=0.5;entryDx=0;entryDy=0;" edge="1" parent="1" target="hKAbpb486GyOKFeo6Ovj-11">
          <mxGeometry width="50" height="50" relative="1" as="geometry">
            <mxPoint x="474" y="340" as="sourcePoint" />
            <mxPoint x="424" y="190" as="targetPoint" />
          </mxGeometry>
        </mxCell>
        <mxCell id="hKAbpb486GyOKFeo6Ovj-22" value="" style="endArrow=classic;html=1;exitX=1;exitY=0.5;exitDx=0;exitDy=0;entryX=1;entryY=0.5;entryDx=0;entryDy=0;" edge="1" parent="1" source="hKAbpb486GyOKFeo6Ovj-11" target="hKAbpb486GyOKFeo6Ovj-1">
          <mxGeometry width="50" height="50" relative="1" as="geometry">
            <mxPoint x="434" y="310" as="sourcePoint" />
            <mxPoint x="434" y="340" as="targetPoint" />
            <Array as="points">
              <mxPoint x="710" y="340" />
              <mxPoint x="710" y="60" />
            </Array>
          </mxGeometry>
        </mxCell>
        <mxCell id="hKAbpb486GyOKFeo6Ovj-23" value="玩法引导通关界面" style="rounded=1;whiteSpace=wrap;html=1;" vertex="1" parent="1">
          <mxGeometry x="354" y="810" width="120" height="40" as="geometry" />
        </mxCell>
        <mxCell id="hKAbpb486GyOKFeo6Ovj-31" value="" style="endArrow=classic;html=1;exitX=0.5;exitY=1;exitDx=0;exitDy=0;entryX=0.5;entryY=0;entryDx=0;entryDy=0;" edge="1" parent="1" source="hKAbpb486GyOKFeo6Ovj-13" target="hKAbpb486GyOKFeo6Ovj-23">
          <mxGeometry width="50" height="50" relative="1" as="geometry">
            <mxPoint x="424" y="720" as="sourcePoint" />
            <mxPoint x="424" y="750" as="targetPoint" />
          </mxGeometry>
        </mxCell>
        <mxCell id="hKAbpb486GyOKFeo6Ovj-32" value="" style="endArrow=classic;html=1;exitX=0.5;exitY=1;exitDx=0;exitDy=0;entryX=0.5;entryY=0;entryDx=0;entryDy=0;" edge="1" parent="1" source="hKAbpb486GyOKFeo6Ovj-23">
          <mxGeometry width="50" height="50" relative="1" as="geometry">
            <mxPoint x="424" y="790" as="sourcePoint" />
            <mxPoint x="414" y="880" as="targetPoint" />
          </mxGeometry>
        </mxCell>
        <mxCell id="hKAbpb486GyOKFeo6Ovj-39" value="玩家死亡&lt;br&gt;（特殊发牌）" style="rounded=1;whiteSpace=wrap;html=1;" vertex="1" parent="1">
          <mxGeometry x="354" y="390" width="120" height="40" as="geometry" />
        </mxCell>
        <mxCell id="hKAbpb486GyOKFeo6Ovj-40" value="" style="endArrow=none;html=1;exitX=0.5;exitY=1;exitDx=0;exitDy=0;entryX=0.5;entryY=0;entryDx=0;entryDy=0;" edge="1" parent="1" source="hKAbpb486GyOKFeo6Ovj-10" target="hKAbpb486GyOKFeo6Ovj-39">
          <mxGeometry width="50" height="50" relative="1" as="geometry">
            <mxPoint x="414" y="360" as="sourcePoint" />
            <mxPoint x="414" y="600" as="targetPoint" />
          </mxGeometry>
        </mxCell>
      </root>
    </mxGraphModel>
  </diagram>
</mxfile>
